<svg width="20" height="20" viewBox="0 0 20 20" fill="none" xmlns="http://www.w3.org/2000/svg">
<path d="M6.66667 3.33335H17.5V5.00002H6.66667V3.33335Z" fill="#212529"/>
<path d="M6.66667 9.16669H17.5V10.8334H6.66667V9.16669Z" fill="#212529"/>
<path d="M17.5 15H6.66667V16.6667H17.5V15Z" fill="#212529"/>
<path d="M5 4.16669C5 4.85704 4.44036 5.41669 3.75 5.41669C3.05964 5.41669 2.5 4.85704 2.5 4.16669C2.5 3.47633 3.05964 2.91669 3.75 2.91669C4.44036 2.91669 5 3.47633 5 4.16669Z" fill="#212529"/>
<path d="M5 10C5 10.6904 4.44036 11.25 3.75 11.25C3.05964 11.25 2.5 10.6904 2.5 10C2.5 9.30966 3.05964 8.75002 3.75 8.75002C4.44036 8.75002 5 9.30966 5 10Z" fill="#212529"/>
<path d="M5 15.8334C5 16.5237 4.44036 17.0834 3.75 17.0834C3.05964 17.0834 2.5 16.5237 2.5 15.8334C2.5 15.143 3.05964 14.5834 3.75 14.5834C4.44036 14.5834 5 15.143 5 15.8334Z" fill="#212529"/>
</svg>
